<svg width="32" height="32" viewBox="0 0 32 32" xmlns="http://www.w3.org/2000/svg">
  <!-- Input queue -->
  <rect x="2" y="6" width="4" height="3" fill="#e6e6e6" stroke="#666666" stroke-width="1" rx="0.5"/>
  <rect x="2" y="10" width="4" height="3" fill="#e6e6e6" stroke="#666666" stroke-width="1" rx="0.5"/>
  <rect x="2" y="14" width="4" height="3" fill="#e6e6e6" stroke="#666666" stroke-width="1" rx="0.5"/>
  <rect x="2" y="18" width="4" height="3" fill="#e6e6e6" stroke="#666666" stroke-width="1" rx="0.5"/>
  <rect x="2" y="22" width="4" height="3" fill="#e6e6e6" stroke="#666666" stroke-width="1" rx="0.5"/>
  
  <!-- Processing center -->
  <circle cx="16" cy="16" r="8" fill="#4169e1" stroke="#333333" stroke-width="2"/>
  <circle cx="16" cy="16" r="5" fill="#ffffff"/>
  
  <!-- Gear teeth for processing -->
  <g fill="#4169e1">
    <rect x="15" y="6" width="2" height="3"/>
    <rect x="15" y="23" width="2" height="3"/>
    <rect x="6" y="15" width="3" height="2"/>
    <rect x="23" y="15" width="3" height="2"/>
  </g>
  
  <!-- Processing indicator -->
  <text x="16" y="18" text-anchor="middle" font-family="Arial, sans-serif" font-size="4" fill="#4169e1" font-weight="bold">P</text>
  
  <!-- Output results -->
  <rect x="26" y="6" width="4" height="3" fill="#28a745" stroke="#1e7e34" stroke-width="1" rx="0.5"/>
  <rect x="26" y="10" width="4" height="3" fill="#28a745" stroke="#1e7e34" stroke-width="1" rx="0.5"/>
  <rect x="26" y="14" width="4" height="3" fill="#28a745" stroke="#1e7e34" stroke-width="1" rx="0.5"/>
  <rect x="26" y="18" width="4" height="3" fill="#28a745" stroke="#1e7e34" stroke-width="1" rx="0.5"/>
  <rect x="26" y="22" width="4" height="3" fill="#28a745" stroke="#1e7e34" stroke-width="1" rx="0.5"/>
  
  <!-- Flow arrows -->
  <defs>
    <marker id="arrowhead" markerWidth="8" markerHeight="6" refX="7" refY="3" orient="auto">
      <polygon points="0 0, 8 3, 0 6" fill="#666666"/>
    </marker>
  </defs>
  
  <!-- Input arrows -->
  <line x1="6" y1="7.5" x2="9" y2="11" stroke="#666666" stroke-width="1.5" marker-end="url(#arrowhead)"/>
  <line x1="6" y1="11.5" x2="9" y2="13" stroke="#666666" stroke-width="1.5" marker-end="url(#arrowhead)"/>
  <line x1="6" y1="15.5" x2="9" y2="16" stroke="#666666" stroke-width="1.5" marker-end="url(#arrowhead)"/>
  <line x1="6" y1="19.5" x2="9" y2="19" stroke="#666666" stroke-width="1.5" marker-end="url(#arrowhead)"/>
  <line x1="6" y1="23.5" x2="9" y2="21" stroke="#666666" stroke-width="1.5" marker-end="url(#arrowhead)"/>
  
  <!-- Output arrows -->
  <line x1="23" y1="11" x2="26" y2="7.5" stroke="#28a745" stroke-width="1.5" marker-end="url(#arrowhead-green)"/>
  <line x1="23" y1="13" x2="26" y2="11.5" stroke="#28a745" stroke-width="1.5" marker-end="url(#arrowhead-green)"/>
  <line x1="23" y1="16" x2="26" y2="15.5" stroke="#28a745" stroke-width="1.5" marker-end="url(#arrowhead-green)"/>
  <line x1="23" y1="19" x2="26" y2="19.5" stroke="#28a745" stroke-width="1.5" marker-end="url(#arrowhead-green)"/>
  <line x1="23" y1="21" x2="26" y2="23.5" stroke="#28a745" stroke-width="1.5" marker-end="url(#arrowhead-green)"/>
  
  <!-- Green arrow marker -->
  <defs>
    <marker id="arrowhead-green" markerWidth="8" markerHeight="6" refX="7" refY="3" orient="auto">
      <polygon points="0 0, 8 3, 0 6" fill="#28a745"/>
    </marker>
  </defs>
  
  <!-- Progress indicators -->
  <circle cx="4" cy="4" r="1" fill="#ffc107"/>
  <circle cx="8" cy="4" r="1" fill="#28a745"/>
  <circle cx="12" cy="4" r="1" fill="#28a745"/>
  <circle cx="16" cy="4" r="1" fill="#28a745"/>
  <circle cx="20" cy="4" r="1" fill="#28a745"/>
  <circle cx="24" cy="4" r="1" fill="#28a745"/>
  <circle cx="28" cy="4" r="1" fill="#28a745"/>
  
  <!-- Progress bar -->
  <rect x="4" y="28" width="24" height="2" fill="#e6e6e6" stroke="#666666" stroke-width="0.5" rx="1"/>
  <rect x="4" y="28" width="18" height="2" fill="#28a745" rx="1"/>
  <text x="16" y="29.2" text-anchor="middle" font-family="Arial, sans-serif" font-size="1.5" fill="#ffffff">75%</text>
</svg>