<svg width="32" height="32" viewBox="0 0 32 32" xmlns="http://www.w3.org/2000/svg">
  <!-- Break line -->
  <path d="M 4 8 Q 8 6 12 8 T 20 8" stroke="#333333" stroke-width="2" fill="none"/>
  <path d="M 4 10 Q 8 12 12 10 T 20 10" stroke="#333333" stroke-width="2" fill="none"/>
  
  <!-- Section marker -->
  <circle cx="26" cy="8" r="3" fill="none" stroke="#333333" stroke-width="1.5"/>
  <text x="26" y="9" text-anchor="middle" font-family="Arial, sans-serif" font-size="4" fill="#333333">A</text>
  <line x1="23" y1="11" x2="29" y2="5" stroke="#333333" stroke-width="1.5"/>
  
  <!-- Material indication (hatching) -->
  <rect x="4" y="16" width="8" height="6" fill="#e6e6e6" stroke="#333333" stroke-width="1"/>
  <g stroke="#666666" stroke-width="0.5">
    <line x1="4" y1="17" x2="12" y2="17"/>
    <line x1="4" y1="18.5" x2="12" y2="18.5"/>
    <line x1="4" y1="20" x2="12" y2="20"/>
    <line x1="4" y1="21.5" x2="12" y2="21.5"/>
  </g>
  
  <!-- Detail callout -->
  <circle cx="20" cy="20" r="4" fill="none" stroke="#333333" stroke-width="1.5"/>
  <text x="20" y="18" text-anchor="middle" font-family="Arial, sans-serif" font-size="3" fill="#333333">3</text>
  <line x1="20" y1="20" x2="20" y2="21" stroke="#333333" stroke-width="0.5"/>
  <text x="20" y="23" text-anchor="middle" font-family="Arial, sans-serif" font-size="2.5" fill="#333333">A101</text>
  
  <!-- Leader line with annotation -->
  <line x1="6" y1="26" x2="14" y2="26" stroke="#333333" stroke-width="1"/>
  <polygon points="14,24 18,26 14,28" fill="#333333"/>
  <rect x="19" y="24.5" width="8" height="3" fill="#ffffff" stroke="#333333" stroke-width="1"/>
  <text x="23" y="26.5" text-anchor="middle" font-family="Arial, sans-serif" font-size="2" fill="#333333">NOTE</text>
</svg>