<svg width="32" height="32" viewBox="0 0 32 32" xmlns="http://www.w3.org/2000/svg">
  <!-- Root family node -->
  <rect x="12" y="2" width="8" height="4" fill="#4169e1" stroke="#333333" stroke-width="1" rx="1"/>
  <text x="16" y="4.5" text-anchor="middle" font-family="Arial, sans-serif" font-size="2" fill="#ffffff" font-weight="bold">ROOT</text>
  
  <!-- Second level families -->
  <rect x="4" y="10" width="6" height="3" fill="#ff6b6b" stroke="#333333" stroke-width="1" rx="0.5"/>
  <text x="7" y="12" text-anchor="middle" font-family="Arial, sans-serif" font-size="1.5" fill="#ffffff">FAM1</text>
  
  <rect x="13" y="10" width="6" height="3" fill="#4ecdc4" stroke="#333333" stroke-width="1" rx="0.5"/>
  <text x="16" y="12" text-anchor="middle" font-family="Arial, sans-serif" font-size="1.5" fill="#ffffff">FAM2</text>
  
  <rect x="22" y="10" width="6" height="3" fill="#96ceb4" stroke="#333333" stroke-width="1" rx="0.5"/>
  <text x="25" y="12" text-anchor="middle" font-family="Arial, sans-serif" font-size="1.5" fill="#ffffff">FAM3</text>
  
  <!-- Third level families -->
  <rect x="2" y="18" width="4" height="2.5" fill="#ffd93d" stroke="#333333" stroke-width="0.8" rx="0.3"/>
  <text x="4" y="19.5" text-anchor="middle" font-family="Arial, sans-serif" font-size="1.2" fill="#333333">S1</text>
  
  <rect x="7" y="18" width="4" height="2.5" fill="#ffd93d" stroke="#333333" stroke-width="0.8" rx="0.3"/>
  <text x="9" y="19.5" text-anchor="middle" font-family="Arial, sans-serif" font-size="1.2" fill="#333333">S2</text>
  
  <rect x="14" y="18" width="4" height="2.5" fill="#ffd93d" stroke="#333333" stroke-width="0.8" rx="0.3"/>
  <text x="16" y="19.5" text-anchor="middle" font-family="Arial, sans-serif" font-size="1.2" fill="#333333">S3</text>
  
  <rect x="21" y="18" width="4" height="2.5" fill="#ffd93d" stroke="#333333" stroke-width="0.8" rx="0.3"/>
  <text x="23" y="19.5" text-anchor="middle" font-family="Arial, sans-serif" font-size="1.2" fill="#333333">S4</text>
  
  <rect x="26" y="18" width="4" height="2.5" fill="#ffd93d" stroke="#333333" stroke-width="0.8" rx="0.3"/>
  <text x="28" y="19.5" text-anchor="middle" font-family="Arial, sans-serif" font-size="1.2" fill="#333333">S5</text>
  
  <!-- Fourth level families (instances) -->
  <circle cx="4" cy="26" r="1.5" fill="#e6e6e6" stroke="#333333" stroke-width="0.5"/>
  <text x="4" y="26.5" text-anchor="middle" font-family="Arial, sans-serif" font-size="1" fill="#333333">i1</text>
  
  <circle cx="9" cy="26" r="1.5" fill="#e6e6e6" stroke="#333333" stroke-width="0.5"/>
  <text x="9" y="26.5" text-anchor="middle" font-family="Arial, sans-serif" font-size="1" fill="#333333">i2</text>
  
  <circle cx="16" cy="26" r="1.5" fill="#e6e6e6" stroke="#333333" stroke-width="0.5"/>
  <text x="16" y="26.5" text-anchor="middle" font-family="Arial, sans-serif" font-size="1" fill="#333333">i3</text>
  
  <circle cx="23" cy="26" r="1.5" fill="#e6e6e6" stroke="#333333" stroke-width="0.5"/>
  <text x="23" y="26.5" text-anchor="middle" font-family="Arial, sans-serif" font-size="1" fill="#333333">i4</text>
  
  <circle cx="28" cy="26" r="1.5" fill="#e6e6e6" stroke="#333333" stroke-width="0.5"/>
  <text x="28" y="26.5" text-anchor="middle" font-family="Arial, sans-serif" font-size="1" fill="#333333">i5</text>
  
  <!-- Connection lines showing hierarchy -->
  <line x1="14" y1="6" x2="7" y2="10" stroke="#666666" stroke-width="1"/>
  <line x1="16" y1="6" x2="16" y2="10" stroke="#666666" stroke-width="1"/>
  <line x1="18" y1="6" x2="25" y2="10" stroke="#666666" stroke-width="1"/>
  
  <line x1="6" y1="13" x2="4" y2="18" stroke="#666666" stroke-width="0.8"/>
  <line x1="8" y1="13" x2="9" y2="18" stroke="#666666" stroke-width="0.8"/>
  <line x1="16" y1="13" x2="16" y2="18" stroke="#666666" stroke-width="0.8"/>
  <line x1="24" y1="13" x2="23" y2="18" stroke="#666666" stroke-width="0.8"/>
  <line x1="26" y1="13" x2="28" y2="18" stroke="#666666" stroke-width="0.8"/>
  
  <line x1="4" y1="20.5" x2="4" y2="24.5" stroke="#666666" stroke-width="0.6"/>
  <line x1="9" y1="20.5" x2="9" y2="24.5" stroke="#666666" stroke-width="0.6"/>
  <line x1="16" y1="20.5" x2="16" y2="24.5" stroke="#666666" stroke-width="0.6"/>
  <line x1="23" y1="20.5" x2="23" y2="24.5" stroke="#666666" stroke-width="0.6"/>
  <line x1="28" y1="20.5" x2="28" y2="24.5" stroke="#666666" stroke-width="0.6"/>
</svg>