<svg width="32" height="32" viewBox="0 0 32 32" xmlns="http://www.w3.org/2000/svg">
  <!-- Main model/building -->
  <rect x="12" y="8" width="8" height="12" fill="#4169e1" stroke="#333333" stroke-width="1.5"/>
  <text x="16" y="15" text-anchor="middle" font-family="Arial, sans-serif" font-size="2.5" fill="#ffffff" font-weight="bold">MAIN</text>
  
  <!-- Linked model 1 -->
  <rect x="4" y="4" width="6" height="8" fill="#ff6b6b" stroke="#333333" stroke-width="1" opacity="0.8"/>
  <text x="7" y="8.5" text-anchor="middle" font-family="Arial, sans-serif" font-size="1.5" fill="#ffffff">LINK1</text>
  
  <!-- Linked model 2 -->
  <rect x="22" y="4" width="6" height="8" fill="#4ecdc4" stroke="#333333" stroke-width="1" opacity="0.8"/>
  <text x="25" y="8.5" text-anchor="middle" font-family="Arial, sans-serif" font-size="1.5" fill="#ffffff">LINK2</text>
  
  <!-- Linked model 3 -->
  <rect x="4" y="20" width="6" height="8" fill="#96ceb4" stroke="#333333" stroke-width="1" opacity="0.8"/>
  <text x="7" y="24.5" text-anchor="middle" font-family="Arial, sans-serif" font-size="1.5" fill="#ffffff">LINK3</text>
  
  <!-- Linked model 4 -->
  <rect x="22" y="20" width="6" height="8" fill="#ffd93d" stroke="#333333" stroke-width="1" opacity="0.8"/>
  <text x="25" y="24.5" text-anchor="middle" font-family="Arial, sans-serif" font-size="1.5" fill="#ffffff">LINK4</text>
  
  <!-- Connection lines showing links -->
  <line x1="10" y1="8" x2="12" y2="10" stroke="#666666" stroke-width="2" stroke-dasharray="3,2"/>
  <line x1="22" y1="8" x2="20" y2="10" stroke="#666666" stroke-width="2" stroke-dasharray="3,2"/>
  <line x1="10" y1="24" x2="12" y2="18" stroke="#666666" stroke-width="2" stroke-dasharray="3,2"/>
  <line x1="22" y1="24" x2="20" y2="18" stroke="#666666" stroke-width="2" stroke-dasharray="3,2"/>
  
  <!-- Link status indicators -->
  <circle cx="8" cy="6" r="1.5" fill="#28a745"/>
  <path d="M 7.3 6 L 7.8 6.5 L 8.7 5.5" stroke="#ffffff" stroke-width="0.5" fill="none"/>
  
  <circle cx="26" cy="6" r="1.5" fill="#28a745"/>
  <path d="M 25.3 6 L 25.8 6.5 L 26.7 5.5" stroke="#ffffff" stroke-width="0.5" fill="none"/>
  
  <circle cx="8" cy="26" r="1.5" fill="#ffc107"/>
  <text x="8" y="26.5" text-anchor="middle" font-family="Arial, sans-serif" font-size="1.2" fill="#333333">!</text>
  
  <circle cx="26" cy="26" r="1.5" fill="#28a745"/>
  <path d="M 25.3 26 L 25.8 26.5 L 26.7 25.5" stroke="#ffffff" stroke-width="0.5" fill="none"/>
  
  <!-- Management/settings icon -->
  <circle cx="16" cy="2" r="2" fill="#666666"/>
  <circle cx="16" cy="2" r="1.2" fill="none" stroke="#ffffff" stroke-width="0.8"/>
  <circle cx="16" cy="2" r="0.4" fill="#ffffff"/>
  
  <!-- Connection line to management -->
  <line x1="16" y1="4" x2="16" y2="8" stroke="#666666" stroke-width="1" stroke-dasharray="2,1"/>
</svg>