<svg width="32" height="32" viewBox="0 0 32 32" xmlns="http://www.w3.org/2000/svg">
  <!-- Brick wall pattern -->
  <rect x="2" y="4" width="28" height="24" fill="#d4751c" stroke="#8b4513" stroke-width="0.5"/>
  
  <!-- First row of bricks -->
  <rect x="2" y="4" width="6" height="4" fill="#d4751c" stroke="#8b4513" stroke-width="0.5"/>
  <rect x="8" y="4" width="6" height="4" fill="#cc6b1a" stroke="#8b4513" stroke-width="0.5"/>
  <rect x="14" y="4" width="6" height="4" fill="#d4751c" stroke="#8b4513" stroke-width="0.5"/>
  <rect x="20" y="4" width="6" height="4" fill="#cc6b1a" stroke="#8b4513" stroke-width="0.5"/>
  <rect x="26" y="4" width="4" height="4" fill="#d4751c" stroke="#8b4513" stroke-width="0.5"/>
  
  <!-- Second row of bricks (offset) -->
  <rect x="2" y="8" width="3" height="4" fill="#cc6b1a" stroke="#8b4513" stroke-width="0.5"/>
  <rect x="5" y="8" width="6" height="4" fill="#d4751c" stroke="#8b4513" stroke-width="0.5"/>
  <rect x="11" y="8" width="6" height="4" fill="#cc6b1a" stroke="#8b4513" stroke-width="0.5"/>
  <rect x="17" y="8" width="6" height="4" fill="#d4751c" stroke="#8b4513" stroke-width="0.5"/>
  <rect x="23" y="8" width="6" height="4" fill="#cc6b1a" stroke="#8b4513" stroke-width="0.5"/>
  <rect x="29" y="8" width="1" height="4" fill="#d4751c" stroke="#8b4513" stroke-width="0.5"/>
  
  <!-- Third row of bricks -->
  <rect x="2" y="12" width="6" height="4" fill="#d4751c" stroke="#8b4513" stroke-width="0.5"/>
  <rect x="8" y="12" width="6" height="4" fill="#cc6b1a" stroke="#8b4513" stroke-width="0.5"/>
  <rect x="14" y="12" width="6" height="4" fill="#d4751c" stroke="#8b4513" stroke-width="0.5"/>
  <rect x="20" y="12" width="6" height="4" fill="#cc6b1a" stroke="#8b4513" stroke-width="0.5"/>
  <rect x="26" y="12" width="4" height="4" fill="#d4751c" stroke="#8b4513" stroke-width="0.5"/>
  
  <!-- Fourth row of bricks (offset) -->
  <rect x="2" y="16" width="3" height="4" fill="#cc6b1a" stroke="#8b4513" stroke-width="0.5"/>
  <rect x="5" y="16" width="6" height="4" fill="#d4751c" stroke="#8b4513" stroke-width="0.5"/>
  <rect x="11" y="16" width="6" height="4" fill="#cc6b1a" stroke="#8b4513" stroke-width="0.5"/>
  <rect x="17" y="16" width="6" height="4" fill="#d4751c" stroke="#8b4513" stroke-width="0.5"/>
  <rect x="23" y="16" width="6" height="4" fill="#cc6b1a" stroke="#8b4513" stroke-width="0.5"/>
  <rect x="29" y="16" width="1" height="4" fill="#d4751c" stroke="#8b4513" stroke-width="0.5"/>
  
  <!-- Fifth row of bricks -->
  <rect x="2" y="20" width="6" height="4" fill="#d4751c" stroke="#8b4513" stroke-width="0.5"/>
  <rect x="8" y="20" width="6" height="4" fill="#cc6b1a" stroke="#8b4513" stroke-width="0.5"/>
  <rect x="14" y="20" width="6" height="4" fill="#d4751c" stroke="#8b4513" stroke-width="0.5"/>
  <rect x="20" y="20" width="6" height="4" fill="#cc6b1a" stroke="#8b4513" stroke-width="0.5"/>
  <rect x="26" y="20" width="4" height="4" fill="#d4751c" stroke="#8b4513" stroke-width="0.5"/>
  
  <!-- Sixth row of bricks (offset) -->
  <rect x="2" y="24" width="3" height="4" fill="#cc6b1a" stroke="#8b4513" stroke-width="0.5"/>
  <rect x="5" y="24" width="6" height="4" fill="#d4751c" stroke="#8b4513" stroke-width="0.5"/>
  <rect x="11" y="24" width="6" height="4" fill="#cc6b1a" stroke="#8b4513" stroke-width="0.5"/>
  <rect x="17" y="24" width="6" height="4" fill="#d4751c" stroke="#8b4513" stroke-width="0.5"/>
  <rect x="23" y="24" width="6" height="4" fill="#cc6b1a" stroke="#8b4513" stroke-width="0.5"/>
  <rect x="29" y="24" width="1" height="4" fill="#d4751c" stroke="#8b4513" stroke-width="0.5"/>
  
  <!-- Cleanup indicator (sparkle/clean effect) -->
  <circle cx="26" cy="6" r="2" fill="#ffffff" opacity="0.8"/>
  <circle cx="26" cy="6" r="1" fill="#ffff00" opacity="0.9"/>
</svg>